<svg width="66" height="39" viewBox="0 0 66 39" fill="none" xmlns="http://www.w3.org/2000/svg">
<path fill-rule="evenodd" clip-rule="evenodd" d="M42.0457 6.7044L65.9401 30.5988L57.7717 38.0037C51.1556 31.3876 36.3202 16.7814 33.1139 13.6514C30.3608 10.9637 24.9258 10.2067 21.8266 11.6492L20.4767 12.9991C20.4043 12.9276 20.3319 12.8561 20.2594 12.7846L22.0811 10.9629L22.0881 10.9699C23.4877 9.5868 25.4156 7.70937 27.532 5.74697C32.1613 1.45443 38.3814 2.73476 42.0457 6.7044ZM2.67664 30.3673L12.4207 20.6233L12.6366 20.8392L2.89256 30.5833L2.67664 30.3673Z" fill="url(#paint0_linear_169_732)"/>
<path fill-rule="evenodd" clip-rule="evenodd" d="M23.8944 32.0952L0 8.20086L8.16836 0.795898C14.7845 7.41201 29.6198 22.0182 32.8261 25.1482C35.5793 27.8359 41.0143 28.5929 44.1134 27.1504L45.4642 25.7997C45.5366 25.8711 45.609 25.9426 45.6815 26.0142L43.859 27.8367L43.852 27.8297C42.4523 29.2128 40.5244 31.0903 38.4081 33.0526C33.7788 37.3452 27.5587 36.0649 23.8944 32.0952ZM53.5202 18.1755L63.2634 8.43229L63.0475 8.21636L53.3043 17.9596L53.5202 18.1755Z" fill="url(#paint1_linear_169_732)"/>
<defs>
<linearGradient id="paint0_linear_169_732" x1="34.3084" y1="5.63565" x2="65.9401" y2="34.9501" gradientUnits="userSpaceOnUse">
<stop stop-color="#0F4D92"/>
<stop offset="0.494791" stop-color="#4B2E83"/>
<stop offset="0.947925" stop-color="#4B2E83" stop-opacity="0"/>
</linearGradient>
<linearGradient id="paint1_linear_169_732" x1="31.6317" y1="32.5073" x2="4.91493" y2="6.24644" gradientUnits="userSpaceOnUse">
<stop stop-color="#009CD5"/>
<stop offset="0.515625" stop-color="#00B38C"/>
<stop offset="1" stop-color="#00B38C" stop-opacity="0"/>
</linearGradient>
</defs>
</svg>
