<svg width="36" height="20" viewBox="0 0 36 20" fill="none" xmlns="http://www.w3.org/2000/svg">
<path d="M13.821 1.7614C16.4443 -0.671077 19.9609 0.0684609 22.0147 2.29039L35.1561 15.4317L30.3913 19.7512L30.2427 19.6026C26.6493 16.0092 18.5906 8.07507 16.8493 6.37516C16.1429 5.68563 15.2067 4.9274 14.1013 4.74499C13.0109 4.56508 11.6993 5.05063 10.7339 6.01603L10.0794 5.3751L11.0098 4.44471L11.0146 4.44955C11.7602 3.71479 12.7458 2.75837 13.821 1.7614Z" fill="white"/>
<path d="M6.19311 10.5981L5.52125 9.93318L0.15625 15.2981L0.797083 15.939L6.19311 10.5981Z" fill="white"/>
<path d="M21.4915 18.2384C18.8682 20.6709 15.3516 19.9313 13.2978 17.7094L6.72707 11.1387L0.156368 4.56808L4.9212 0.248596L5.06977 0.397168C8.6632 3.99057 16.7219 11.9247 18.4632 13.6246C19.1696 14.3141 20.1398 14.9476 21.2453 15.13C22.3356 15.3099 23.6229 14.9728 24.5883 14.0074L25.2331 14.6247L24.3027 15.5551L24.2979 15.5502C23.5523 16.285 22.5667 17.2414 21.4915 18.2384Z" fill="white"/>
<path d="M29.1601 9.43568L29.7913 10.0666L35.1562 4.70164L34.5114 4.0568L29.1601 9.43568Z" fill="white"/>
</svg>
