<svg width="71" height="73" viewBox="0 0 71 73" fill="none" xmlns="http://www.w3.org/2000/svg">
<path fill-rule="evenodd" clip-rule="evenodd" d="M27.2793 23.8817C27.2793 29.2654 24.0666 33.8988 19.4538 35.9694L32.7602 49.2756L32.7014 49.3343V64.6364H54.8097V72.9787H0.792969V64.6364H24.3591V52.6723L6.36317 34.6766C2.99189 32.276 0.793127 28.3356 0.793127 23.8817C0.793127 16.5679 6.72225 10.6388 14.0362 10.6388C14.6972 10.6388 15.3468 10.6872 15.9818 10.7807H34.8931V19.123H26.3985C26.9674 20.5999 27.2793 22.2044 27.2793 23.8817Z" fill="#0156AC"/>
<path fill-rule="evenodd" clip-rule="evenodd" d="M37.7812 10.5458V19.0809L39.4126 20.7122L39.4166 20.7082L48.2691 29.5605L48.3014 29.5282H70.7845V21.186H51.6923L45.3156 14.8093L51.6842 8.44076H70.7935V0.0984995H48.2933L48.2609 0.0661926L37.7812 10.5458Z" fill="#643EAD"/>
</svg>
