<svg width="21" height="21" viewBox="0 0 21 21" fill="none" xmlns="http://www.w3.org/2000/svg">
<path d="M4.87795 13.1386C4.87795 14.295 3.93328 15.2396 2.77687 15.2396C1.62046 15.2396 0.675781 14.295 0.675781 13.1386C0.675781 11.9822 1.62046 11.0375 2.77687 11.0375H4.87795V13.1386Z" fill="white"/>
<path d="M5.9375 13.1385C5.9375 11.9822 6.88217 11.0375 8.03859 11.0375C9.195 11.0375 10.1397 11.9822 10.1397 13.1385V18.3993C10.1397 19.5557 9.195 20.5003 8.03859 20.5003C6.88217 20.5003 5.9375 19.5557 5.9375 18.3993V13.1385Z" fill="white"/>
<path d="M8.03859 4.70181C6.88217 4.70181 5.9375 3.75715 5.9375 2.60077C5.9375 1.44438 6.88217 0.499725 8.03859 0.499725C9.195 0.499725 10.1397 1.44438 10.1397 2.60077V4.70181H8.03859Z" fill="white"/>
<path d="M8.03773 5.76047C9.19414 5.76047 10.1388 6.70512 10.1388 7.86151C10.1388 9.01789 9.19414 9.96255 8.03773 9.96255H2.77687C1.62046 9.96255 0.675781 9.01789 0.675781 7.86151C0.675781 6.70512 1.62046 5.76047 2.77687 5.76047H8.03773Z" fill="white"/>
<path d="M16.4746 7.86151C16.4746 6.70512 17.4193 5.76047 18.5757 5.76047C19.7321 5.76047 20.6768 6.70512 20.6768 7.86151C20.6768 9.01789 19.7321 9.96255 18.5757 9.96255H16.4746V7.86151Z" fill="white"/>
<path d="M15.4151 7.86151C15.4151 9.01789 14.4704 9.96255 13.314 9.96255C12.1576 9.96255 11.2129 9.01789 11.2129 7.86151V2.60076C11.2129 1.44438 12.1576 0.499725 13.314 0.499725C14.4704 0.499725 15.4151 1.44438 15.4151 2.60076V7.86151Z" fill="white"/>
<path d="M13.314 16.2982C14.4704 16.2982 15.4151 17.2429 15.4151 18.3993C15.4151 19.5556 14.4704 20.5003 13.314 20.5003C12.1576 20.5003 11.2129 19.5556 11.2129 18.3993V16.2982H13.314Z" fill="white"/>
<path d="M13.314 15.2396C12.1576 15.2396 11.2129 14.2949 11.2129 13.1385C11.2129 11.9821 12.1576 11.0375 13.314 11.0375H18.5748C19.7312 11.0375 20.6759 11.9821 20.6759 13.1385C20.6759 14.2949 19.7312 15.2396 18.5748 15.2396H13.314Z" fill="white"/>
</svg>
