<svg width="160" height="90" viewBox="0 0 160 90" fill="none" xmlns="http://www.w3.org/2000/svg">
<path d="M62.6673 7.85401C74.5556 -3.16947 90.492 0.181956 99.7994 10.2513L159.353 69.8049L137.76 89.3799L137.087 88.7066C120.802 72.4221 84.2822 36.4662 76.3908 28.7626C73.1899 25.6378 68.9473 22.2016 63.9375 21.375C58.9963 20.5597 53.0525 22.7601 48.6775 27.1351L45.7113 24.2305L49.9276 20.0142L49.9496 20.0361C53.3285 16.7064 57.7948 12.372 62.6673 7.85401Z" fill="url(#paint0_linear_673_2142)"/>
<path d="M28.0998 47.9002L25.055 44.8868L0.742188 69.1996L3.64628 72.1037L28.0998 47.9002Z" fill="url(#paint1_linear_673_2142)"/>
<path d="M97.4284 82.5242C85.5401 93.5477 69.6037 90.1962 60.2963 80.1269L30.5195 50.3501L0.742722 20.5733L22.3358 0.998291L23.009 1.67159C39.2936 17.9561 75.8135 53.9119 83.7049 61.6156C86.9058 64.7404 91.3027 67.6109 96.3125 68.4375C101.254 69.2528 107.087 67.7254 111.462 63.3504L114.384 66.1477L110.168 70.364L110.146 70.3421C106.767 73.6718 102.301 78.0061 97.4284 82.5242Z" fill="url(#paint2_linear_673_2142)"/>
<path d="M132.18 42.6322L135.041 45.4914L159.354 21.1786L156.431 18.2563L132.18 42.6322Z" fill="url(#paint3_linear_673_2142)"/>
<defs>
<linearGradient id="paint0_linear_673_2142" x1="80.0479" y1="7.48603" x2="151.841" y2="80.7309" gradientUnits="userSpaceOnUse">
<stop stop-color="#0F4D92"/>
<stop offset="0.494791" stop-color="#4B2E83"/>
<stop offset="0.947925" stop-color="#4B2E83" stop-opacity="0"/>
</linearGradient>
<linearGradient id="paint1_linear_673_2142" x1="80.0479" y1="7.48603" x2="151.841" y2="80.7309" gradientUnits="userSpaceOnUse">
<stop stop-color="#0F4D92"/>
<stop offset="0.494791" stop-color="#4B2E83"/>
<stop offset="0.947925" stop-color="#4B2E83" stop-opacity="0"/>
</linearGradient>
<linearGradient id="paint2_linear_673_2142" x1="13.1758" y1="8.38251" x2="80.6522" y2="74.7682" gradientUnits="userSpaceOnUse">
<stop stop-color="#00B38C" stop-opacity="0"/>
<stop offset="0.48937" stop-color="#00B38C"/>
<stop offset="1" stop-color="#009CD5"/>
</linearGradient>
<linearGradient id="paint3_linear_673_2142" x1="13.1758" y1="8.38251" x2="80.6522" y2="74.7682" gradientUnits="userSpaceOnUse">
<stop stop-color="#00B38C" stop-opacity="0"/>
<stop offset="0.48937" stop-color="#00B38C"/>
<stop offset="1" stop-color="#009CD5"/>
</linearGradient>
</defs>
</svg>
