<svg width="800" height="500" xmlns="http://www.w3.org/2000/svg">
  <!-- Background -->
  <rect width="800" height="500" fill="#f8f9fa" rx="10"/>
  
  <!-- Title -->
  <text x="400" y="40" text-anchor="middle" font-family="Arial, sans-serif" font-size="24" font-weight="bold" fill="#2c3e50">
    Gap to Human Performance
  </text>
  
  <!-- Subtitle -->
  <text x="400" y="65" text-anchor="middle" font-family="Arial, sans-serif" font-size="16" fill="#7f8c8d">
    Best Models vs Human Performance
  </text>
  
  <!-- Chart area background -->
  <rect x="100" y="100" width="600" height="300" fill="white" stroke="#e9ecef" stroke-width="1" rx="5"/>
  
  <!-- Grid lines -->
  <g stroke="#e9ecef" stroke-width="1">
    <!-- Horizontal grid lines -->
    <line x1="100" y1="160" x2="700" y2="160"/>
    <line x1="100" y1="220" x2="700" y2="220"/>
    <line x1="100" y1="280" x2="700" y2="280"/>
    <line x1="100" y1="340" x2="700" y2="340"/>
  </g>
  
  <!-- Y-axis labels -->
  <g font-family="Arial, sans-serif" font-size="12" fill="#666" text-anchor="end">
    <text x="95" y="405">0</text>
    <text x="95" y="345">20</text>
    <text x="95" y="285">40</text>
    <text x="95" y="225">60</text>
    <text x="95" y="165">80</text>
  </g>
  
  <!-- Y-axis title -->
  <text x="30" y="250" text-anchor="middle" font-family="Arial, sans-serif" font-size="14" font-weight="bold" fill="#666" transform="rotate(-90, 30, 250)">
    Success Rate (%)
  </text>
  
  <!-- Bars -->
  <!-- CoACT-1: 60.76% -->
  <rect x="140" y="174.28" width="80" height="225.72" fill="rgba(102, 126, 234, 0.8)" stroke="rgba(102, 126, 234, 1)" stroke-width="2" rx="3"/>
  
  <!-- Agent S2.5 w/ o3: 56.0% -->
  <rect x="270" y="192" width="80" height="208" fill="rgba(102, 126, 234, 0.6)" stroke="rgba(102, 126, 234, 1)" stroke-width="2" rx="3"/>
  
  <!-- Claude 4 Sonnet: 43.9% -->
  <rect x="400" y="237.15" width="80" height="162.85" fill="rgba(118, 75, 162, 0.8)" stroke="rgba(118, 75, 162, 1)" stroke-width="2" rx="3"/>
  
  <!-- Human Performance: 72% -->
  <rect x="530" y="130" width="80" height="270" fill="rgba(46, 204, 113, 0.8)" stroke="rgba(46, 204, 113, 1)" stroke-width="2" rx="3"/>
  
  <!-- Value labels on bars -->
  <g font-family="Arial, sans-serif" font-size="14" font-weight="bold" fill="white" text-anchor="middle">
    <text x="180" y="195">60.8%</text>
    <text x="310" y="210">56.0%</text>
    <text x="440" y="255">43.9%</text>
    <text x="570" y="150">72.0%</text>
  </g>
  
  <!-- X-axis labels -->
  <g font-family="Arial, sans-serif" font-size="12" fill="#666" text-anchor="middle">
    <text x="180" y="430">CoACT-1</text>
    <text x="310" y="430">Agent S2.5</text>
    <text x="310" y="445">w/ o3</text>
    <text x="440" y="430">Claude 4</text>
    <text x="440" y="445">Sonnet</text>
    <text x="570" y="430">Human</text>
    <text x="570" y="445">Performance</text>
  </g>
  
  <!-- Legend indicators -->
  <g font-family="Arial, sans-serif" font-size="11" fill="#666">
    <circle cx="120" cy="470" r="4" fill="rgba(102, 126, 234, 0.8)"/>
    <text x="130" y="474">Agentic Frameworks</text>
    
    <circle cx="280" cy="470" r="4" fill="rgba(118, 75, 162, 0.8)"/>
    <text x="290" y="474">Foundation Models</text>
    
    <circle cx="450" cy="470" r="4" fill="rgba(46, 204, 113, 0.8)"/>
    <text x="460" y="474">Human Baseline</text>
  </g>
</svg>