<svg width="1440" height="550" viewBox="0 0 1440 550" fill="none" xmlns="http://www.w3.org/2000/svg">
<path d="M-227.578 423.133C42.1132 423.133 266.053 171.738 598.352 182.256" stroke="#7B7B7B" stroke-opacity="0.1"/>
<path d="M598.352 181.935C868.043 181.935 1091.98 433.331 1424.28 422.812" stroke="#7B7B7B" stroke-opacity="0.1"/>
<path d="M952.281 549.629C1221.97 549.629 1445.91 298.234 1778.21 308.753" stroke="#7B7B7B" stroke-opacity="0.1" stroke-width="0.5"/>
<path d="M-699.578 549.629C-429.887 549.629 -205.947 298.234 126.352 308.753" stroke="#7B7B7B" stroke-opacity="0.1" stroke-width="0.5"/>
<path d="M126.352 308.431C396.043 308.431 619.983 559.827 952.281 549.308" stroke="#7B7B7B" stroke-opacity="0.1" stroke-width="0.5"/>
<path d="M1990 215.422C1590 215.422 1582 0.502066 1194 0.502066" stroke="#C6C6C6" stroke-opacity="0.3"/>
<path d="M398 215.422C798 215.422 806 0.502066 1194 0.502066" stroke="#C6C6C6" stroke-opacity="0.3"/>
<path d="M398 215.422C-2 215.422 -10 0.502066 -398 0.502066" stroke="#C6C6C6" stroke-opacity="0.3"/>
</svg>
